<svg xmlns="http://www.w3.org/2000/svg" width="24" height="24" viewBox="0 0 24 24" fill="none" stroke="currentColor" stroke-width="2" stroke-linecap="round" stroke-linejoin="round"><path d="M12 15a3 3 0 1 0 0-6 3 3 0 0 0 0 6z"/><path d="M19.4 15a1.65 1.65 0 0 0 .33 1.82l.06.06a2 2 0 1 1-2.83 2.83l-.06-.06a1.65 1.65 0 0 0-1.82-.33 1.65 1.65 0 0 0-1 1.51V21a2 2 0 1 1-4 0v-.09a1.65 1.65 0 0 0-1-1.51 1.65 1.65 0 0 0-1.82.33l-.06.06a2 2 0 1 1-2.83-2.83l.06-.06a1.65 1.65 0 0 0 .33-1.82 1.65 1.65 0 0 0-1.51-1H3a2 2 0 1 1 0-4h.09a1.65 1.65 0 0 0 1.51-1 1.65 1.65 0 0 0-.33-1.82l-.06-.06A2 2 0 1 1 7.04 3.3l.06.06c.46.46 1.12.6 1.71.39.59-.21 1-.77 1-1.39V2a2 2 0 1 1 4 0v.09c0 .62.41 1.18 1 1.39.59.21 1.25.07 1.71-.39l.06-.06a2 2 0 1 1 2.83 2.83l-.06.06c-.46.46-.6 1.12-.39 1.71.21.59.77 1 1.39 1H21a2 2 0 1 1 0 4h-.09c-.62 0-1.18.41-1.39 1z"/></svg>
